<svg width="45" height="36" viewBox="0 0 45 36" fill="none" xmlns="http://www.w3.org/2000/svg">
<rect width="44.5418" height="35.3137" rx="5" fill="#96EA63"/>
<path d="M30.7777 8C30.7777 9.08546 30.6279 10.0961 30.3659 11.0692C30.0665 12.0424 29.6922 12.9407 29.2056 13.7642C28.719 14.5876 28.1202 15.3362 27.409 15.9725C26.6978 16.6462 25.9493 17.1702 25.1258 17.6568C25.9493 18.106 26.7353 18.6674 27.409 19.3037C28.1202 19.94 28.719 20.6886 29.2056 21.5121C29.6922 22.3355 30.1039 23.2338 30.3659 24.1696C30.6654 25.1427 30.7777 26.1533 30.7777 27.2388H27.5213C27.5213 26.2656 27.3341 25.3299 26.9599 24.3567C26.5856 23.3836 26.0615 22.5227 25.3504 21.7741C24.6766 20.9881 23.8158 20.3892 22.8426 19.9026C21.8694 19.416 20.7465 19.1914 19.5488 19.1914V16.1222C20.7091 16.1222 21.7571 15.8976 22.7303 15.4485C23.7035 14.9993 24.5644 14.4005 25.2755 13.6519C25.9867 12.9033 26.5481 12.0424 26.9224 11.0692C27.3341 10.0961 27.5213 9.08546 27.5213 8H30.7777ZM36.5418 8C36.5418 8.89831 36.4295 9.83406 36.2424 10.7698C36.0552 11.7055 35.7932 12.5664 35.4564 13.4273C35.1195 14.2882 34.7078 15.0368 34.2586 15.7853C33.8095 16.4965 33.2854 17.1328 32.724 17.6568C33.3229 18.1434 33.8469 18.7797 34.3335 19.4909C34.8201 20.202 35.1944 20.9881 35.5312 21.8489C35.8681 22.7098 36.0927 23.5707 36.2798 24.5064C36.467 25.4422 36.5418 26.3779 36.5418 27.3137H33.2854C33.1732 24.9556 32.724 22.9718 31.9006 21.4372C31.0771 19.9026 29.9168 18.6674 28.4196 17.7317C29.9168 16.7211 31.0771 15.4859 31.9006 13.9513C32.724 12.4167 33.1732 10.4703 33.2854 8.11228H36.5418V8Z" fill="black"/>
<path d="M13.7642 8C13.7642 9.08546 13.9139 10.0961 14.1759 11.0692C14.4753 12.0424 14.8496 12.9407 15.3362 13.7642C15.8228 14.5876 16.4216 15.3362 17.1328 15.9725C17.844 16.6462 18.5926 17.1702 19.416 17.6568C18.5926 18.106 17.8065 18.6674 17.1328 19.3037C16.4217 19.94 15.8228 20.6886 15.3362 21.5121C14.8496 22.3355 14.4379 23.2338 14.1759 24.1696C13.8764 25.1427 13.7642 26.1533 13.7642 27.2388H17.0205C17.0205 26.2656 17.2077 25.3299 17.582 24.3567C17.9563 23.3836 18.4803 22.5227 19.1914 21.7741C19.8652 20.9881 20.726 20.3892 21.6992 19.9026C22.6724 19.416 23.7953 19.1914 24.993 19.1914V16.1222C23.8327 16.1222 22.7847 15.8976 21.8115 15.4485C20.8383 14.9993 19.9775 14.4005 19.2663 13.6519C18.5551 12.9033 17.9937 12.0424 17.6194 11.0692C17.2077 10.0961 17.0205 9.08546 17.0205 8L13.7642 8ZM8 8C8 8.89831 8.11229 9.83406 8.29944 10.7698C8.48658 11.7055 8.74859 12.5664 9.08546 13.4273C9.42232 14.2882 9.83405 15.0368 10.2832 15.7853C10.7324 16.4965 11.2564 17.1328 11.8178 17.6568C11.2189 18.1434 10.6949 18.7797 10.2083 19.4909C9.72176 20.202 9.34747 20.9881 9.0106 21.8489C8.67373 22.7098 8.44916 23.5707 8.26201 24.5064C8.07486 25.4422 8 26.3779 8 27.3137H11.2564C11.3687 24.9556 11.8178 22.9718 12.6413 21.4372C13.4647 19.9026 14.625 18.6674 16.1222 17.7317C14.625 16.7211 13.4647 15.4859 12.6413 13.9513C11.8178 12.4167 11.3687 10.4703 11.2564 8.11229L8 8.11229L8 8Z" fill="black"/>
</svg>
